<svg xmlns="http://www.w3.org/2000/svg" viewBox="0 0 100 100"><circle cx="49.979" cy="50.021" r="36" fill="#c6dff1"/><path fill="#ead6c7" d="M44,63.739l-5.59,1.832c-2.197,0.857-3.818,2.719-4.355,4.974C38.661,74.112,44.151,76,49.937,76 c5.835,0,11.359-1.916,15.984-5.536c-0.557-2.218-2.161-4.048-4.331-4.894L56,63.739c0,0-2-0.75-2-2.75c0-0.07,0-0.138,0-0.208 c1.808-0.908,3.736-2.326,5.007-4.263C59.431,55.873,60,54.695,60,53.479v-2c0.544-0.182,0.96-0.723,1.168-1.384 c0.189-0.588,0.841-4.012,0.831-4.283c-0.016-0.448-0.17-0.774-0.334-0.99C61.567,44.695,61,43.979,61,43.979l0.656-0.656 c-1.207-0.209-2.139-0.604-2.834-1.039c-0.337,0.119-0.694,0.196-1.072,0.196c-1.416,0-2.607-0.911-3.053-2.173 c-1.136,0.74-2.49,1.173-3.947,1.173c-2.852,0-5.312-1.65-6.495-4.044c-2.541-0.169-4.05-0.85-4.881-1.64l-0.268,0.134 c-0.763,0.381-1.2,1.205-1.088,2.05L39,44.067c0,0-0.567,0.629-0.665,0.756c-0.163,0.215-0.318,0.541-0.334,0.99 c-0.01,0.271,0.642,3.695,0.831,4.283c0.208,0.66,0.624,1.201,1.168,1.383v2c0,1.216,0.569,2.394,0.993,3.039 c1.272,1.937,3.199,3.355,5.007,4.263c0,0.07,0,0.138,0,0.208C46,63.02,44,63.739,44,63.739z"/><path fill="#a3a3cd" d="M34.055,70.545C38.661,74.112,44.151,76,49.937,76c5.835,0,11.359-1.916,15.984-5.536 c-0.557-2.218-2.161-4.048-4.331-4.894l-1.407-0.461c-0.01,0.01-0.032,0.033-0.037,0.037C60.098,65.195,55.169,70,44.5,70 c-5.929,0-8.527-1.844-9.044-2.266C34.793,68.548,34.304,69.501,34.055,70.545z"/><path fill="#fcba7f" d="M64.5,40.479c-0.181,0-0.328-0.016-0.477-0.031c0.888-0.58,1.477-1.579,1.477-2.719 c0-1.719-1.338-3.111-3.027-3.228c0.007-0.092,0.027-0.179,0.027-0.272c0-2.071-1.679-3.75-3.75-3.75 c-0.119,0-0.231,0.024-0.347,0.035c-0.45-2.299-2.472-4.035-4.903-4.035c-1.354,0-2.578,0.543-3.478,1.417 c-1.01-0.88-2.327-1.417-3.772-1.417c-2.937,0-5.355,2.203-5.703,5.046l0,0c-1.164,0.214-2.047,1.229-2.047,2.454 c0,1.269,1.277,3.158,5.755,3.456c1.184,2.394,3.644,4.044,6.495,4.044c1.457,0,2.811-0.434,3.947-1.173 c0.446,1.263,1.638,2.173,3.053,2.173c0.378,0,0.735-0.077,1.072-0.196c1.015,0.636,2.519,1.196,4.678,1.196c0,0,4,0,4-4 C67.5,39.479,66.5,40.479,64.5,40.479z"/><g><path fill="#1f212b" d="M49.971,62.01c-1.934,0-6.587-1.828-8.978-5.47l0.836-0.549c2.132,3.248,6.497,5.019,8.142,5.019 c1.712,0,6.038-1.724,8.201-5.019l0.836,0.549C56.617,60.182,51.926,62.01,49.971,62.01z"/><path fill="#1f212b" d="M63.5,44c-1.838,0-3.432-0.387-4.742-1.15c-1.783,0.517-3.482-0.33-4.287-1.806 C53.331,41.671,52.056,42,50.75,42c-2.868,0-5.452-1.551-6.812-4.067C39.563,37.566,38,35.6,38,34c0-1.323,0.865-2.473,2.103-2.858 C40.632,28.187,43.215,26,46.25,26c1.356,0,2.674,0.445,3.756,1.26C50.991,26.445,52.216,26,53.5,26c2.47,0,4.626,1.657,5.289,4 c2.272,0.021,4.125,1.833,4.208,4.09C64.716,34.44,66,35.962,66,37.75c0,0.799-0.253,1.562-0.708,2.19 c1.217-0.189,1.828-0.768,1.858-0.797c0.144-0.139,0.361-0.18,0.544-0.103C67.878,39.119,68,39.299,68,39.5 C68,43.06,65.057,44,63.5,44z M58.822,41.805c0.093,0,0.185,0.026,0.266,0.076C60.273,42.624,61.757,43,63.5,43 c0.126,0,2.824-0.047,3.395-2.515C66.337,40.751,65.538,41,64.5,41c-0.185,0-0.337-0.015-0.49-0.03 c-0.211-0.021-0.404-0.174-0.455-0.38c-0.05-0.206,0.017-0.423,0.194-0.539C64.532,39.539,65,38.679,65,37.75 c0-1.431-1.125-2.629-2.562-2.729c-0.133-0.009-0.256-0.071-0.343-0.172c-0.087-0.101-0.131-0.232-0.121-0.364l0.016-0.139 C62,32.458,60.542,31,58.75,31c-0.053,0-0.104,0.008-0.155,0.016l-0.146,0.018c-0.251,0.027-0.487-0.15-0.537-0.402 C57.5,28.527,55.645,27,53.5,27c-1.171,0-2.282,0.453-3.13,1.276c-0.187,0.181-0.48,0.188-0.677,0.018 C48.735,27.459,47.513,27,46.25,27c-2.646,0-4.885,1.98-5.207,4.606c-0.026,0.217-0.191,0.392-0.406,0.431 C39.688,32.211,39,33.037,39,34c0,1.202,1.385,2.697,5.288,2.957c0.178,0.012,0.336,0.118,0.415,0.277 C45.852,39.557,48.169,41,50.75,41c1.306,0,2.576-0.378,3.674-1.092c0.129-0.083,0.289-0.104,0.434-0.055 c0.145,0.049,0.26,0.163,0.311,0.307C55.557,41.261,56.594,42,57.75,42c0.289,0,0.586-0.055,0.907-0.167 C58.711,41.814,58.767,41.805,58.822,41.805z"/><path fill="#1f212b" d="M66.394,68.851c-0.884-1.929-2.48-3.424-4.546-4.229l-5.375-1.761 c-0.041-0.02-0.083-0.037-0.128-0.051c-0.349-0.111-1.126-0.606-1.304-1.43h0c1.421-0.785,3.408-2.166,4.804-4.297 C60.192,56.542,61,55.11,61,53.5v-1.41c0.508-0.386,0.905-0.979,1.117-1.661c0.172-0.535,0.863-3.955,0.882-4.658 c-0.023-0.546-0.2-1.065-0.566-1.571c-0.028-0.032-0.061-0.074-0.094-0.119l0.598-0.598c-0.935-0.044-1.736-0.195-2.418-0.41 l-0.195,0.195c-0.347,0.347-0.391,0.894-0.104,1.292l0.498,0.691c0.069,0.096,0.139,0.183,0.144,0.183c0,0,0,0,0,0 c0.085,0.12,0.132,0.263,0.139,0.344c-0.024,0.431-0.636,3.566-0.791,4.05c-0.091,0.292-0.244,0.536-0.42,0.67l-0.395,0.3 C59.146,50.987,59,51.281,59,51.594V53.5c0,1.111-0.642,2.195-0.833,2.494c-1.167,1.781-2.87,2.959-4.092,3.634l-0.651,0.359 c-0.387,0.213-0.588,0.655-0.495,1.087l0.157,0.727c0.313,1.456,1.488,2.482,2.505,2.863c0.043,0.022,0.089,0.041,0.137,0.057 l5.445,1.783c1.528,0.596,2.737,1.726,3.397,3.167l0.188,0.427C60.425,73.308,55.318,75,49.937,75 c-5.332,0-10.403-1.666-14.714-4.824l0.2-0.495c0.663-1.45,1.836-2.565,3.251-3.121l5.815-1.917 c0.473-0.204,2.045-1.013,2.43-2.858l0.149-0.722c0.088-0.429-0.113-0.867-0.497-1.078l-0.645-0.356 c-1.225-0.676-2.928-1.855-4.085-3.622C41.645,55.701,41,54.612,41,53.5v-1.907c0-0.313-0.146-0.608-0.396-0.797l-0.393-0.298 c-0.177-0.135-0.332-0.383-0.427-0.689c-0.143-0.446-0.753-3.554-0.786-3.927c0.008-0.185,0.056-0.33,0.156-0.461 c0.043-0.055,0.145-0.167,0.241-0.269l0.339-0.359c0.213-0.226,0.31-0.539,0.26-0.846l-0.98-6.046 c-0.057-0.438,0.162-0.862,0.549-1.056l0.881-0.292c-0.879-0.447-1.406-1-1.684-1.543l-0.094,0.048 c-1.145,0.572-1.802,1.818-1.63,3.132l0.906,5.589c-0.166,0.175-0.341,0.379-0.382,0.436c-0.346,0.454-0.534,0.986-0.559,1.634 c0.005,0.502,0.693,3.985,0.878,4.561c0.216,0.695,0.614,1.291,1.123,1.679v1.41c0,1.612,0.812,3.047,1.165,3.597 c1.386,2.116,3.372,3.497,4.795,4.284c-0.188,0.899-1.015,1.32-1.18,1.396l-5.783,1.903c-1.953,0.764-3.513,2.245-4.411,4.21 l-0.504,1.248c-0.167,0.415-0.04,0.89,0.313,1.164C38.187,75.029,43.907,77,49.937,77c6.09,0,11.854-2.006,16.671-5.8 c0.358-0.282,0.48-0.771,0.296-1.188L66.394,68.851z"/><path fill="#1f212b" d="M56.5,68.556c-0.188,0-0.368-0.106-0.453-0.288c-0.117-0.25-0.01-0.548,0.24-0.665 c0.693-0.325,1.349-0.678,1.95-1.049c0.235-0.146,0.543-0.072,0.688,0.163s0.072,0.543-0.163,0.688 c-0.633,0.391-1.323,0.763-2.05,1.104C56.644,68.541,56.571,68.556,56.5,68.556z"/><path fill="#1f212b" d="M44.5,71c-7.125,0-9.746-2.539-9.854-2.646c-0.195-0.195-0.195-0.512,0-0.707 c0.195-0.194,0.51-0.194,0.705-0.002l0,0C35.375,67.668,37.84,70,44.5,70c3.575,0,6.883-0.536,9.832-1.592 c0.258-0.093,0.545,0.042,0.639,0.302c0.093,0.26-0.042,0.546-0.302,0.639C51.612,70.444,48.19,71,44.5,71z"/><path fill="#1f212b" d="M77.351,37c-0.184,0-0.361-0.102-0.449-0.278c-0.113-0.228-0.236-0.45-0.358-0.672l-0.171-0.312 c-0.131-0.243-0.041-0.546,0.202-0.678c0.243-0.13,0.546-0.041,0.678,0.202l0.167,0.304c0.13,0.235,0.26,0.47,0.38,0.712 c0.123,0.248,0.021,0.547-0.227,0.67C77.501,36.983,77.425,37,77.351,37z"/><path fill="#1f212b" d="M75.63,34c-0.164,0-0.325-0.081-0.421-0.229c-0.931-1.443-1.966-2.792-3.078-4.007 c-0.186-0.204-0.172-0.52,0.032-0.707c0.203-0.185,0.52-0.172,0.707,0.032c1.149,1.257,2.22,2.65,3.181,4.14 c0.149,0.232,0.083,0.542-0.149,0.691C75.816,33.974,75.723,34,75.63,34z"/><path fill="#1f212b" d="M23.188,65c-0.178,0-0.35-0.095-0.44-0.262l-0.167-0.304c-0.13-0.235-0.26-0.47-0.38-0.712 c-0.123-0.248-0.021-0.547,0.227-0.67c0.247-0.123,0.547-0.021,0.67,0.227c0.113,0.228,0.236,0.45,0.358,0.672l0.171,0.312 c0.131,0.243,0.041,0.546-0.202,0.678C23.35,64.98,23.268,65,23.188,65z"/><path fill="#1f212b" d="M27.5,71.074c-0.135,0-0.271-0.055-0.369-0.163c-1.149-1.257-2.22-2.65-3.181-4.14 c-0.149-0.232-0.083-0.542,0.149-0.691c0.232-0.15,0.542-0.083,0.691,0.149c0.931,1.443,1.966,2.792,3.078,4.007 c0.186,0.204,0.172,0.52-0.032,0.707C27.742,71.03,27.621,71.074,27.5,71.074z"/><path fill="#1f212b" d="M20.004,45c-0.03,0-0.06-0.002-0.09-0.008c-0.271-0.049-0.452-0.31-0.402-0.582 C22.195,29.687,35.017,19,50,19c7.203,0,14.221,2.527,19.76,7.115c0.213,0.176,0.242,0.492,0.066,0.704 c-0.176,0.213-0.49,0.243-0.704,0.066C63.762,22.445,56.971,20,50,20c-14.5,0-26.908,10.341-29.504,24.59 C20.452,44.831,20.241,45,20.004,45z"/><path fill="#1f212b" d="M50,81c-7.203,0-14.221-2.527-19.76-7.115c-0.213-0.176-0.242-0.492-0.066-0.704 c0.177-0.212,0.491-0.243,0.704-0.066C36.238,77.555,43.029,80,50,80c14.5,0,26.908-10.341,29.504-24.59 c0.049-0.271,0.311-0.452,0.582-0.402c0.271,0.049,0.452,0.31,0.402,0.582C77.805,70.313,64.983,81,50,81z"/><path fill="#1f212b" d="M50,86c-13.538,0-25.805-7.488-32.015-19.542c-0.253-0.491-0.06-1.094,0.431-1.347 c0.491-0.253,1.094-0.059,1.347,0.431C25.628,76.927,37.214,84,50,84c18.748,0,34-15.252,34-34c0-0.514-0.012-1.031-0.037-1.55 l-1.021,2.884c-0.185,0.521-0.755,0.794-1.276,0.609c-0.521-0.185-0.793-0.756-0.609-1.276l2.477-7 c0.152-0.429,0.573-0.699,1.027-0.663c0.453,0.039,0.823,0.378,0.901,0.826C85.819,45.892,86,47.968,86,50 C86,69.851,69.851,86,50,86z"/><path fill="#1f212b" d="M15.523,57c-0.028,0-0.056-0.001-0.085-0.003c-0.453-0.039-0.823-0.378-0.901-0.826 C14.181,54.108,14,52.032,14,50c0-19.851,16.149-36,36-36c13.538,0,25.805,7.488,32.015,19.542c0.253,0.491,0.06,1.094-0.431,1.347 c-0.492,0.253-1.094,0.06-1.347-0.431C74.372,23.073,62.786,16,50,16c-18.748,0-34,15.252-34,34c0,0.514,0.012,1.031,0.037,1.55 l1.021-2.884c0.185-0.521,0.757-0.792,1.276-0.609c0.521,0.185,0.793,0.756,0.609,1.276l-2.477,7 C16.323,56.735,15.944,57,15.523,57z"/></g></svg>